<?xml version='1.0' encoding='UTF-8' standalone='no'?>
<!-- Created with Fritzing (http://www.fritzing.org/) -->
<svg width="3.54331in" x="0in" version="1.2" y="0in" xmlns="http://www.w3.org/2000/svg" height="1.77165in" viewBox="0 0 255.118 127.559" baseProfile="tiny" xmlns:svg="http://www.w3.org/2000/svg">
 <g  id="silkscreen" stroke-width="0">
  <line  stroke="black" y1="0.288001" x1="0.288" y2="0.288001" stroke-width="0.576" x2="254.542"/>
  <line  stroke="black" y1="0.288001" x1="254.542" y2="126.983" stroke-width="0.576" x2="254.542"/>
  <line  stroke="black" y1="126.983" x1="254.542" y2="126.983" stroke-width="0.576" x2="0.288"/>
  <line  stroke="black" y1="126.983" x1="0.288" y2="0.288001" stroke-width="0.576" x2="0.288"/>
 </g>
 <g transform="translate(-6.9976,11.0616)">
  <g  id="copper0" stroke-width="0">
   <circle fill="none" cx="39.24"  cy="12.96" stroke="black" id="connector0pin" r="4.32" stroke-width="1.44"/>
   <circle fill="none" cx="21.96"  cy="12.96" stroke="black" id="connector1pin" r="4.32" stroke-width="1.44"/>
   <circle fill="none" cx="30.6"  cy="26.64" stroke="black" id="connector2pin" r="4.32" stroke-width="1.44"/>
  </g>
 </g>
 <g transform="translate(88.7624,81.6216)">
  <g transform="matrix(0,1,-1,0,0,0)">
   <g id="copper0" stroke-width="0">
    <rect width="4.32" x="12.24" y="6.84" fill="none" height="4.32" stroke="black" stroke-width="1.44"/>
    <circle fill="none" cx="14.4" cy="9" stroke="black" id="connector0pin" r="2.16" stroke-width="1.44"/>
    <circle fill="none" cx="14.4" cy="23.4" stroke="black" id="connector1pin" r="2.16" stroke-width="1.44"/>
   </g>
  </g>
 </g>
 <g transform="translate(239.962,81.6216)">
  <g transform="matrix(0,1,-1,0,0,0)">
   <g id="copper0" stroke-width="0">
    <rect width="4.32" x="12.24" y="6.84" fill="none" height="4.32" stroke="black" stroke-width="1.44"/>
    <circle fill="none" cx="14.4" cy="9" stroke="black" id="connector0pin" r="2.16" stroke-width="1.44"/>
    <circle fill="none" cx="14.4" cy="23.4" stroke="black" id="connector1pin" r="2.16" stroke-width="1.44"/>
   </g>
  </g>
 </g>
 <g transform="translate(189.562,81.6216)">
  <g transform="matrix(0,1,-1,0,0,0)">
   <g id="copper0" stroke-width="0">
    <rect width="4.32" x="12.24" y="6.84" fill="none" height="4.32" stroke="black" stroke-width="1.44"/>
    <circle fill="none" cx="14.4" cy="9" stroke="black" id="connector0pin" r="2.16" stroke-width="1.44"/>
    <circle fill="none" cx="14.4" cy="23.4" stroke="black" id="connector1pin" r="2.16" stroke-width="1.44"/>
   </g>
  </g>
 </g>
 <g transform="translate(131.962,81.6216)">
  <g transform="matrix(0,1,-1,0,0,0)">
   <g id="copper0" stroke-width="0">
    <rect width="4.32" x="12.24" y="6.84" fill="none" height="4.32" stroke="black" stroke-width="1.44"/>
    <circle fill="none" cx="14.4" cy="9" stroke="black" id="connector0pin" r="2.16" stroke-width="1.44"/>
    <circle fill="none" cx="14.4" cy="23.4" stroke="black" id="connector1pin" r="2.16" stroke-width="1.44"/>
   </g>
  </g>
 </g>
 <g transform="translate(45.5171,22.3831)">
  <g  id="copper0" stroke-width="0">
   <rect width="3.96" x="20.1351" y="3.33923" fill="none"  height="3.95999" stroke="black" id="_45344440" stroke-width="1.44"/>
   <circle fill="none" cx="22.1151"  cy="5.31922" stroke="black" id="_45294224" r="1.98" stroke-width="1.44"/>
   <circle fill="none" cx="4.94505"  cy="8.75877" stroke="black" id="_45294120" r="1.98" stroke-width="1.44"/>
   <circle fill="none" cx="4.85832"  cy="44.9568" stroke="black" id="_45293768" r="1.98" stroke-width="1.44"/>
   <circle fill="none" cx="39.145"  cy="44.8978" stroke="black" id="_45291120" r="1.98" stroke-width="1.44"/>
   <circle fill="none" cx="39.1068"  cy="8.78457" stroke="black" id="_45267704" r="1.98" stroke-width="1.44"/>
   <rect width="4" x="3.44528" y="42.8385" fill="none"  height="4" id="connector3" stroke-width="0"/>
   <rect width="4" x="36.9843" y="42.8385" fill="none"  height="4" id="connector4" stroke-width="0"/>
   <rect width="4" x="36.6794" y="6.86025" fill="none"  height="4" id="connector0" stroke-width="0"/>
   <rect width="4" x="2.83548" y="6.55535" fill="none"  height="4" id="connector1" stroke-width="0"/>
   <rect width="4" x="19.9099" y="3.50635" fill="none"  height="4" id="connector2" stroke-width="0"/>
  </g>
 </g>
 <g transform="translate(203.917,22.3831)">
  <g  id="copper0" stroke-width="0">
   <rect width="3.96" x="20.1351" y="3.33923" fill="none"  height="3.95999" stroke="black" id="_45344440" stroke-width="1.44"/>
   <circle fill="none" cx="22.1151"  cy="5.31922" stroke="black" id="_45294224" r="1.98" stroke-width="1.44"/>
   <circle fill="none" cx="4.94505"  cy="8.75877" stroke="black" id="_45294120" r="1.98" stroke-width="1.44"/>
   <circle fill="none" cx="4.85832"  cy="44.9568" stroke="black" id="_45293768" r="1.98" stroke-width="1.44"/>
   <circle fill="none" cx="39.145"  cy="44.8978" stroke="black" id="_45291120" r="1.98" stroke-width="1.44"/>
   <circle fill="none" cx="39.1068"  cy="8.78457" stroke="black" id="_45267704" r="1.98" stroke-width="1.44"/>
   <rect width="4" x="3.44528" y="42.8385" fill="none"  height="4" id="connector3" stroke-width="0"/>
   <rect width="4" x="36.9843" y="42.8385" fill="none"  height="4" id="connector4" stroke-width="0"/>
   <rect width="4" x="36.6794" y="6.86025" fill="none"  height="4" id="connector0" stroke-width="0"/>
   <rect width="4" x="2.83548" y="6.55535" fill="none"  height="4" id="connector1" stroke-width="0"/>
   <rect width="4" x="19.9099" y="3.50635" fill="none"  height="4" id="connector2" stroke-width="0"/>
  </g>
 </g>
 <g transform="translate(95.9171,22.3831)">
  <g  id="copper0" stroke-width="0">
   <rect width="3.96" x="20.1351" y="3.33923" fill="none"  height="3.95999" stroke="black" id="_45344440" stroke-width="1.44"/>
   <circle fill="none" cx="22.1151"  cy="5.31922" stroke="black" id="_45294224" r="1.98" stroke-width="1.44"/>
   <circle fill="none" cx="4.94505"  cy="8.75877" stroke="black" id="_45294120" r="1.98" stroke-width="1.44"/>
   <circle fill="none" cx="4.85832"  cy="44.9568" stroke="black" id="_45293768" r="1.98" stroke-width="1.44"/>
   <circle fill="none" cx="39.145"  cy="44.8978" stroke="black" id="_45291120" r="1.98" stroke-width="1.44"/>
   <circle fill="none" cx="39.1068"  cy="8.78457" stroke="black" id="_45267704" r="1.98" stroke-width="1.44"/>
   <rect width="4" x="3.44528" y="42.8385" fill="none"  height="4" id="connector3" stroke-width="0"/>
   <rect width="4" x="36.9843" y="42.8385" fill="none"  height="4" id="connector4" stroke-width="0"/>
   <rect width="4" x="36.6794" y="6.86025" fill="none"  height="4" id="connector0" stroke-width="0"/>
   <rect width="4" x="2.83548" y="6.55535" fill="none"  height="4" id="connector1" stroke-width="0"/>
   <rect width="4" x="19.9099" y="3.50635" fill="none"  height="4" id="connector2" stroke-width="0"/>
  </g>
 </g>
 <g transform="translate(153.517,22.3831)">
  <g  id="copper0" stroke-width="0">
   <rect width="3.96" x="20.1351" y="3.33923" fill="none"  height="3.95999" stroke="black" id="_45344440" stroke-width="1.44"/>
   <circle fill="none" cx="22.1151"  cy="5.31922" stroke="black" id="_45294224" r="1.98" stroke-width="1.44"/>
   <circle fill="none" cx="4.94505"  cy="8.75877" stroke="black" id="_45294120" r="1.98" stroke-width="1.44"/>
   <circle fill="none" cx="4.85832"  cy="44.9568" stroke="black" id="_45293768" r="1.98" stroke-width="1.44"/>
   <circle fill="none" cx="39.145"  cy="44.8978" stroke="black" id="_45291120" r="1.98" stroke-width="1.44"/>
   <circle fill="none" cx="39.1068"  cy="8.78457" stroke="black" id="_45267704" r="1.98" stroke-width="1.44"/>
   <rect width="4" x="3.44528" y="42.8385" fill="none"  height="4" id="connector3" stroke-width="0"/>
   <rect width="4" x="36.9843" y="42.8385" fill="none"  height="4" id="connector4" stroke-width="0"/>
   <rect width="4" x="36.6794" y="6.86025" fill="none"  height="4" id="connector0" stroke-width="0"/>
   <rect width="4" x="2.83548" y="6.55535" fill="none"  height="4" id="connector1" stroke-width="0"/>
   <rect width="4" x="19.9099" y="3.50635" fill="none"  height="4" id="connector2" stroke-width="0"/>
  </g>
 </g>
 <g transform="translate(146.722,14.6616)">
  <g transform="matrix(0,-1,1,0,0,0)">
   <g  id="copper0" stroke-width="0">
    <circle fill="none" cx="5.04"  cy="5.04" stroke="black" id="connector0pin" r="1.98" stroke-width="1.44"/>
    <circle fill="none" cx="5.04"  cy="12.24" stroke="black" id="connector1pin" r="1.98" stroke-width="1.44"/>
    <circle fill="none" cx="5.04"  cy="19.44" stroke="black" id="connector2pin" r="1.98" stroke-width="1.44"/>
    <circle fill="none" cx="5.04"  cy="26.64" stroke="black" id="connector3pin" r="1.98" stroke-width="1.44"/>
    <circle fill="none" cx="5.04"  cy="33.84" stroke="black" id="connector4pin" r="1.98" stroke-width="1.44"/>
   </g>
  </g>
 </g>
 <line stroke="black" stroke-linecap="round" y1="11.6816" x1="166.162" y2="24.1456" stroke-width="1.728" x2="166.162"/>
 <line stroke="black" stroke-linecap="round" y1="24.1456" x1="166.162" y2="24.1456" stroke-width="1.728" x2="158.353"/>
 <line stroke="black" stroke-linecap="round" y1="24.1456" x1="158.353" y2="27.3161" stroke-width="1.728" x2="158.353"/>
 <line stroke="black" stroke-linecap="round" y1="31.2432" x1="188.574" y2="31.2432" stroke-width="1.728" x2="186.725"/>
 <line stroke="black" stroke-linecap="round" y1="31.2432" x1="186.725" y2="21.3376" stroke-width="1.728" x2="186.725"/>
 <line stroke="black" stroke-linecap="round" y1="21.3376" x1="186.725" y2="21.3376" stroke-width="1.728" x2="180.562"/>
 <line stroke="black" stroke-linecap="round" y1="21.3376" x1="180.562" y2="9.6216" stroke-width="1.728" x2="180.562"/>
 <line stroke="black" stroke-linecap="round" y1="27.3161" x1="50.3528" y2="17.0376" stroke-width="1.728" x2="50.3528"/>
 <line stroke="black" stroke-linecap="round" y1="17.0376" x1="50.3528" y2="17.0376" stroke-width="1.728" x2="151.762"/>
 <line stroke="black" stroke-linecap="round" y1="17.0376" x1="151.762" y2="11.6816" stroke-width="1.728" x2="151.762"/>
 <line stroke="black" stroke-linecap="round" y1="24.0216" x1="36.6424" y2="24.0216" stroke-width="1.728" x2="39.2264"/>
 <line stroke="black" stroke-linecap="round" y1="24.0216" x1="39.2264" y2="36.7152" stroke-width="1.728" x2="39.2264"/>
 <line stroke="black" stroke-linecap="round" y1="36.7152" x1="39.2264" y2="36.7152" stroke-width="1.728" x2="61.9552"/>
 <line stroke="black" stroke-linecap="round" y1="36.7152" x1="61.9552" y2="27.8896" stroke-width="1.728" x2="61.9552"/>
 <line stroke="black" stroke-linecap="round" y1="27.8896" x1="61.9552" y2="27.8896" stroke-width="1.728" x2="63.8049"/>
 <line stroke="black" stroke-linecap="round" y1="70.8439" x1="209.362" y2="72.6936" stroke-width="1.728" x2="209.362"/>
 <line stroke="black" stroke-linecap="round" y1="72.6936" x1="209.362" y2="72.6936" stroke-width="1.728" x2="230.962"/>
 <line stroke="black" stroke-linecap="round" y1="72.6936" x1="230.962" y2="93.7816" stroke-width="1.728" x2="230.962"/>
 <line stroke="black" stroke-linecap="round" y1="70.8439" x1="101.362" y2="75.5016" stroke-width="1.728" x2="101.362"/>
 <line stroke="black" stroke-linecap="round" y1="75.5016" x1="101.362" y2="75.5016" stroke-width="1.728" x2="122.962"/>
 <line stroke="black" stroke-linecap="round" y1="75.5016" x1="122.962" y2="93.7816" stroke-width="1.728" x2="122.962"/>
 <line stroke="black" stroke-linecap="round" y1="93.7816" x1="180.562" y2="72.6936" stroke-width="1.728" x2="180.562"/>
 <line stroke="black" stroke-linecap="round" y1="72.6936" x1="180.562" y2="72.6936" stroke-width="1.728" x2="158.962"/>
 <line stroke="black" stroke-linecap="round" y1="72.6936" x1="158.962" y2="70.8439" stroke-width="1.728" x2="158.962"/>
 <line stroke="black" stroke-linecap="round" y1="93.7816" x1="79.7624" y2="75.7176" stroke-width="1.728" x2="79.7624"/>
 <line stroke="black" stroke-linecap="round" y1="75.7176" x1="79.7624" y2="75.7176" stroke-width="1.728" x2="50.9624"/>
 <line stroke="black" stroke-linecap="round" y1="75.7176" x1="50.9624" y2="70.8439" stroke-width="1.728" x2="50.9624"/>
 <line stroke="black" stroke-linecap="round" y1="27.3161" x1="208.753" y2="4.9776" stroke-width="1.728" x2="208.753"/>
 <line stroke="black" stroke-linecap="round" y1="4.9776" x1="208.753" y2="4.9776" stroke-width="1.728" x2="173.362"/>
 <line stroke="black" stroke-linecap="round" y1="4.9776" x1="173.362" y2="7.5616" stroke-width="1.728" x2="173.362"/>
 <line stroke="black" stroke-linecap="round" y1="96.0216" x1="106.322" y2="96.0216" stroke-width="1.728" x2="103.738"/>
 <line stroke="black" stroke-linecap="round" y1="96.0216" x1="103.738" y2="100.846" stroke-width="1.728" x2="103.738"/>
 <line stroke="black" stroke-linecap="round" y1="100.846" x1="103.738" y2="100.846" stroke-width="1.728" x2="70.1864"/>
 <line stroke="black" stroke-linecap="round" y1="100.846" x1="70.1864" y2="96.0216" stroke-width="1.728" x2="70.1864"/>
 <line stroke="black" stroke-linecap="round" y1="96.0216" x1="70.1864" y2="96.0216" stroke-width="1.728" x2="67.6024"/>
 <line stroke="black" stroke-linecap="round" y1="31.2432" x1="238.974" y2="31.2432" stroke-width="1.728" x2="237.125"/>
 <line stroke="black" stroke-linecap="round" y1="31.2432" x1="237.125" y2="36.7152" stroke-width="1.728" x2="237.125"/>
 <line stroke="black" stroke-linecap="round" y1="36.7152" x1="237.125" y2="36.7152" stroke-width="1.728" x2="197.669"/>
 <line stroke="black" stroke-linecap="round" y1="36.7152" x1="197.669" y2="31.2432" stroke-width="1.728" x2="197.669"/>
 <line stroke="black" stroke-linecap="round" y1="31.2432" x1="197.669" y2="31.2432" stroke-width="1.728" x2="195.819"/>
 <line stroke="black" stroke-linecap="round" y1="27.8896" x1="229.45" y2="27.8896" stroke-width="1.728" x2="231.299"/>
 <line stroke="black" stroke-linecap="round" y1="27.8896" x1="231.299" y2="25.7712" stroke-width="1.728" x2="231.299"/>
 <line stroke="black" stroke-linecap="round" y1="25.7712" x1="231.299" y2="25.7712" stroke-width="1.728" x2="248.069"/>
 <line stroke="black" stroke-linecap="round" y1="25.7712" x1="248.069" y2="39.5232" stroke-width="1.728" x2="248.069"/>
 <line stroke="black" stroke-linecap="round" y1="39.5232" x1="248.069" y2="39.5232" stroke-width="1.728" x2="180.899"/>
 <line stroke="black" stroke-linecap="round" y1="39.5232" x1="180.899" y2="27.8896" stroke-width="1.728" x2="180.899"/>
 <line stroke="black" stroke-linecap="round" y1="27.8896" x1="180.899" y2="27.8896" stroke-width="1.728" x2="179.05"/>
 <line stroke="black" stroke-linecap="round" y1="96.0216" x1="214.322" y2="96.0216" stroke-width="1.728" x2="211.738"/>
 <line stroke="black" stroke-linecap="round" y1="96.0216" x1="211.738" y2="100.846" stroke-width="1.728" x2="211.738"/>
 <line stroke="black" stroke-linecap="round" y1="100.846" x1="211.738" y2="100.846" stroke-width="1.728" x2="170.986"/>
 <line stroke="black" stroke-linecap="round" y1="100.846" x1="170.986" y2="96.0216" stroke-width="1.728" x2="170.986"/>
 <line stroke="black" stroke-linecap="round" y1="96.0216" x1="170.986" y2="96.0216" stroke-width="1.728" x2="168.402"/>
 <line stroke="black" stroke-linecap="round" y1="27.8896" x1="114.205" y2="27.8896" stroke-width="1.728" x2="112.355"/>
 <line stroke="black" stroke-linecap="round" y1="27.8896" x1="112.355" y2="25.4664" stroke-width="1.728" x2="112.355"/>
 <line stroke="black" stroke-linecap="round" y1="25.4664" x1="112.355" y2="25.4664" stroke-width="1.728" x2="72.8992"/>
 <line stroke="black" stroke-linecap="round" y1="25.4664" x1="72.8992" y2="27.8896" stroke-width="1.728" x2="72.8992"/>
 <line stroke="black" stroke-linecap="round" y1="27.8896" x1="72.8992" y2="27.8896" stroke-width="1.728" x2="71.0495"/>
 <line stroke="black" stroke-linecap="round" y1="31.2432" x1="87.8191" y2="31.2432" stroke-width="1.728" x2="89.6688"/>
 <line stroke="black" stroke-linecap="round" y1="31.2432" x1="89.6688" y2="36.7152" stroke-width="1.728" x2="89.6688"/>
 <line stroke="black" stroke-linecap="round" y1="36.7152" x1="89.6688" y2="36.7152" stroke-width="1.728" x2="129.125"/>
 <line stroke="black" stroke-linecap="round" y1="36.7152" x1="129.125" y2="31.2432" stroke-width="1.728" x2="129.125"/>
 <line stroke="black" stroke-linecap="round" y1="31.2432" x1="129.125" y2="31.2432" stroke-width="1.728" x2="130.974"/>
 <line stroke="black" stroke-linecap="round" y1="18.5296" x1="180.562" y2="18.5296" stroke-width="1.728" x2="169.186"/>
 <line stroke="black" stroke-linecap="round" y1="18.5296" x1="169.186" y2="36.7152" stroke-width="1.728" x2="169.186"/>
 <line stroke="black" stroke-linecap="round" y1="36.7152" x1="169.186" y2="36.7152" stroke-width="1.728" x2="140.069"/>
 <line stroke="black" stroke-linecap="round" y1="36.7152" x1="140.069" y2="31.2432" stroke-width="1.728" x2="140.069"/>
 <line stroke="black" stroke-linecap="round" y1="31.2432" x1="140.069" y2="31.2432" stroke-width="1.728" x2="138.219"/>
 <line stroke="black" stroke-linecap="round" y1="18.5296" x1="180.562" y2="11.6816" stroke-width="1.728" x2="180.562"/>
 <line stroke="black" stroke-linecap="round" y1="96.0216" x1="110.802" y2="96.0216" stroke-width="1.728" x2="113.386"/>
 <line stroke="black" stroke-linecap="round" y1="96.0216" x1="113.386" y2="100.846" stroke-width="1.728" x2="113.386"/>
 <line stroke="black" stroke-linecap="round" y1="100.846" x1="113.386" y2="100.846" stroke-width="1.728" x2="161.338"/>
 <line stroke="black" stroke-linecap="round" y1="100.846" x1="161.338" y2="96.0216" stroke-width="1.728" x2="161.338"/>
 <line stroke="black" stroke-linecap="round" y1="96.0216" x1="161.338" y2="96.0216" stroke-width="1.728" x2="163.922"/>
 <line stroke="black" stroke-linecap="round" y1="39.5232" x1="180.899" y2="39.5232" stroke-width="1.728" x2="64.9792"/>
 <line stroke="black" stroke-linecap="round" y1="39.5232" x1="64.9792" y2="36.9312" stroke-width="1.728" x2="64.9792"/>
 <line stroke="black" stroke-linecap="round" y1="36.9312" x1="64.9792" y2="36.9312" stroke-width="1.728" x2="63.2512"/>
 <line stroke="black" stroke-linecap="round" y1="36.9312" x1="63.2512" y2="36.7152" stroke-width="1.728" x2="61.9552"/>
 <line stroke="black" stroke-linecap="round" y1="39.5232" x1="180.899" y2="27.8896" stroke-width="1.728" x2="180.899"/>
 <line stroke="black" stroke-linecap="round" y1="36.7152" x1="61.9552" y2="36.7152" stroke-width="1.728" x2="61.9552"/>
 <line stroke="black" stroke-linecap="round" y1="30.9384" x1="104.375" y2="30.9384" stroke-width="1.728" x2="112.139"/>
 <line stroke="black" stroke-linecap="round" y1="30.9384" x1="112.139" y2="33.3616" stroke-width="1.728" x2="112.139"/>
 <line stroke="black" stroke-linecap="round" y1="33.3616" x1="112.139" y2="33.3616" stroke-width="1.728" x2="126.317"/>
 <line stroke="black" stroke-linecap="round" y1="33.3616" x1="126.317" y2="19.8456" stroke-width="1.728" x2="126.317"/>
 <line stroke="black" stroke-linecap="round" y1="19.8456" x1="126.317" y2="19.8456" stroke-width="1.728" x2="154.786"/>
 <line stroke="black" stroke-linecap="round" y1="19.8456" x1="154.786" y2="14.2296" stroke-width="1.728" x2="154.786"/>
 <line stroke="black" stroke-linecap="round" y1="14.2296" x1="154.786" y2="14.2656" stroke-width="1.728" x2="158.962"/>
 <line stroke="black" stroke-linecap="round" y1="14.2656" x1="158.962" y2="11.6816" stroke-width="1.728" x2="158.962"/>
 <line stroke="black" stroke-linecap="round" y1="42.1016" x1="23.6024" y2="78.5256" stroke-width="1.728" x2="23.6024"/>
 <line stroke="black" stroke-linecap="round" y1="78.5256" x1="23.6024" y2="78.5256" stroke-width="1.728" x2="65.3624"/>
 <line stroke="black" stroke-linecap="round" y1="78.5256" x1="65.3624" y2="93.7816" stroke-width="1.728" x2="65.3624"/>
</svg>
